General
Complete name                            : son fucked by many daddies.flv
Format                                   : Flash Video
File size                                : 98.3 MiB
Duration                                 : 19mn 35s
Overall bit rate mode                    : Variable
Overall bit rate                         : 701 Kbps
Tagging application                      : Yet Another Metadata Injector for FLV - Version 1.2

Video
Format                                   : Sorenson Spark
Codec ID                                 : 2
Duration                                 : 19mn 35s
Bit rate                                 : 587 Kbps
Width                                    : 480 pixels
Height                                   : 360 pixels
Display aspect ratio                     : 4:3
Frame rate mode                          : Constant
Frame rate                               : 29.970 fps
Bit depth                                : 8 bits
Bits/(Pixel*Frame)                       : 0.113
Stream size                              : 84.6 MiB (86%)

Audio
Format                                   : MPEG Audio
Format version                           : Version 1
Format profile                           : Layer 3
Mode                                     : Joint stereo
Mode extension                           : MS Stereo
Codec ID                                 : 2
Codec ID/Hint                            : MP3
Duration                                 : 19mn 35s
Bit rate mode                            : Variable
Bit rate                                 : 89.8 Kbps
Channel(s)                               : 2 channels
Sampling rate                            : 44.1 KHz
Compression mode                         : Lossy
Stream size                              : 13.4 MiB (14%)
Writing library                          : LAME3.98.4

FULL size image: http://bayimg.com/eahplaAEK

You can add me on Skype if you want @ GaySubsGR

** GREEK **
Kali proboli kai kante SEED!! :)

More: https://thepiratebay.se/user/GaySubsGR